<?xml version="1.0" encoding="utf-8"?>
<!-- Generated by Mocodo 4.3.2 -->
<svg width="978" height="331" viewBox="0 0 978 331" xmlns="http://www.w3.org/2000/svg">

<!-- Entity UTILISATEUR -->
<g>
	<g>
		<rect x="451" y="9" width="136" height="25" fill="#b2abd2" stroke="none" stroke-width="0" opacity="1"/>
		<rect x="451" y="34" width="136" height="111" fill="#d8daeb" stroke="none" stroke-width="0" opacity="1"/>
		<rect x="451" y="9" width="136" height="136" fill="none" stroke="#8073ac" stroke-width="2" opacity="1"/>
		<line x1="451" y1="34" x2="587" y2="34" stroke="#8073ac" stroke-width="1"/>
	</g>
	<text x="474" y="26.75" fill="#000000" font-family="Verdana" font-size="12">UTILISATEUR</text>
	<text x="456" y="51.8" fill="#000000" font-family="Verdana" font-size="12">id utilisateur</text>
	<line x1="456" y1="54" x2="540" y2="54" stroke="#000000" stroke-width="1"/>
	<text x="456" y="68.8" fill="#000000" font-family="Verdana" font-size="12">email</text>
	<text x="456" y="85.8" fill="#000000" font-family="Verdana" font-size="12">prénom</text>
	<text x="456" y="102.8" fill="#000000" font-family="Verdana" font-size="12">genre grammatical</text>
	<text x="456" y="119.8" fill="#000000" font-family="Verdana" font-size="12">date création</text>
	<text x="456" y="136.8" fill="#000000" font-family="Verdana" font-size="12">date modification</text>
</g>

<!-- Entity SENTIMENT -->
<g>
	<g>
		<rect x="43" y="195" width="104" height="25" fill="#b2abd2" stroke="none" stroke-width="0" opacity="1"/>
		<rect x="43" y="220" width="104" height="77" fill="#d8daeb" stroke="none" stroke-width="0" opacity="1"/>
		<rect x="43" y="195" width="104" height="102" fill="none" stroke="#8073ac" stroke-width="2" opacity="1"/>
		<line x1="43" y1="220" x2="147" y2="220" stroke="#8073ac" stroke-width="1"/>
	</g>
	<text x="55" y="212.75" fill="#000000" font-family="Verdana" font-size="12">SENTIMENT</text>
	<text x="48" y="237.8" fill="#000000" font-family="Verdana" font-size="12">id sentiment</text>
	<line x1="48" y1="240" x2="132" y2="240" stroke="#000000" stroke-width="1"/>
	<text x="48" y="254.8" fill="#000000" font-family="Verdana" font-size="12">famille</text>
	<text x="48" y="271.8" fill="#000000" font-family="Verdana" font-size="12">nom féminin</text>
	<text x="48" y="288.8" fill="#000000" font-family="Verdana" font-size="12">nom masculin</text>
</g>

<!-- Entity CONTIENT_SENTIMENT -->
<g>
	<g>
		<rect x="215" y="212" width="168" height="25" fill="#b2abd2" stroke="none" stroke-width="0" opacity="1"/>
		<rect x="215" y="237" width="168" height="43" fill="#d8daeb" stroke="none" stroke-width="0" opacity="1"/>
		<rect x="215" y="212" width="168" height="68" fill="none" stroke="#8073ac" stroke-width="2" opacity="1"/>
		<line x1="215" y1="237" x2="383" y2="237" stroke="#8073ac" stroke-width="1"/>
	</g>
	<text x="220" y="229.75" fill="#000000" font-family="Verdana" font-size="12">CONTIENT_SENTIMENT</text>
	<text x="220" y="254.8" fill="#000000" font-family="Verdana" font-size="12">#id sentiment</text>
	<line x1="220" y1="257" x2="315" y2="257" stroke="#000000" stroke-width="1"/>
	<text x="220" y="271.8" fill="#000000" font-family="Verdana" font-size="12">#id pause</text>
	<line x1="220" y1="274" x2="288" y2="274" stroke="#000000" stroke-width="1"/>
</g>

<!-- Entity PAUSE -->
<g>
	<g>
		<rect x="456" y="170" width="126" height="25" fill="#b2abd2" stroke="none" stroke-width="0" opacity="1"/>
		<rect x="456" y="195" width="126" height="127" fill="#d8daeb" stroke="none" stroke-width="0" opacity="1"/>
		<rect x="456" y="170" width="126" height="152" fill="none" stroke="#8073ac" stroke-width="2" opacity="1"/>
		<line x1="456" y1="195" x2="582" y2="195" stroke="#8073ac" stroke-width="1"/>
	</g>
	<text x="497" y="187.75" fill="#000000" font-family="Verdana" font-size="12">PAUSE</text>
	<text x="461" y="212.8" fill="#000000" font-family="Verdana" font-size="12">id pause</text>
	<line x1="461" y1="215" x2="518" y2="215" stroke="#000000" stroke-width="1"/>
	<text x="461" y="229.8" fill="#000000" font-family="Verdana" font-size="12">titre</text>
	<text x="461" y="246.8" fill="#000000" font-family="Verdana" font-size="12">vide ton sac</text>
	<text x="461" y="263.8" fill="#000000" font-family="Verdana" font-size="12">observation</text>
	<text x="461" y="280.8" fill="#000000" font-family="Verdana" font-size="12">date création</text>
	<text x="461" y="297.8" fill="#000000" font-family="Verdana" font-size="12">date modification</text>
	<text x="461" y="314.8" fill="#000000" font-family="Verdana" font-size="12">#id utilisateur</text>
</g>

<!-- Entity CONTIENT_BESOIN -->
<g>
	<g>
		<rect x="655" y="212" width="142" height="25" fill="#b2abd2" stroke="none" stroke-width="0" opacity="1"/>
		<rect x="655" y="237" width="142" height="43" fill="#d8daeb" stroke="none" stroke-width="0" opacity="1"/>
		<rect x="655" y="212" width="142" height="68" fill="none" stroke="#8073ac" stroke-width="2" opacity="1"/>
		<line x1="655" y1="237" x2="797" y2="237" stroke="#8073ac" stroke-width="1"/>
	</g>
	<text x="661" y="229.75" fill="#000000" font-family="Verdana" font-size="12">CONTIENT_BESOIN</text>
	<text x="660" y="254.8" fill="#000000" font-family="Verdana" font-size="12">#id pause</text>
	<line x1="660" y1="257" x2="728" y2="257" stroke="#000000" stroke-width="1"/>
	<text x="660" y="271.8" fill="#000000" font-family="Verdana" font-size="12">#id besoin</text>
	<line x1="660" y1="274" x2="731" y2="274" stroke="#000000" stroke-width="1"/>
</g>

<!-- Entity BESOIN -->
<g>
	<g>
		<rect x="865" y="204" width="70" height="25" fill="#b2abd2" stroke="none" stroke-width="0" opacity="1"/>
		<rect x="865" y="229" width="70" height="59" fill="#d8daeb" stroke="none" stroke-width="0" opacity="1"/>
		<rect x="865" y="204" width="70" height="84" fill="none" stroke="#8073ac" stroke-width="2" opacity="1"/>
		<line x1="865" y1="229" x2="935" y2="229" stroke="#8073ac" stroke-width="1"/>
	</g>
	<text x="874" y="221.75" fill="#000000" font-family="Verdana" font-size="12">BESOIN</text>
	<text x="870" y="246.8" fill="#000000" font-family="Verdana" font-size="12">id besoin</text>
	<line x1="870" y1="249" x2="930" y2="249" stroke="#000000" stroke-width="1"/>
	<text x="870" y="263.8" fill="#000000" font-family="Verdana" font-size="12">famille</text>
	<text x="870" y="280.8" fill="#000000" font-family="Verdana" font-size="12">nom</text>
</g>

<!-- Link from &quot;id sentiment&quot; (CONTIENT_SENTIMENT) to &quot;id sentiment&quot; (SENTIMENT) -->
<path d="M215 250.5 C181 242 192.33 233.5 147 233.5" fill="none" stroke="#e08214" stroke-width="2"/>
<polygon points="147 233.5 159 227.5 155 233.5 159 239.5" fill="#e08214" stroke-width="0"/>
<circle cx="215" cy="250.5" r="2" stroke="#e08214" stroke-width="2" fill="#e08214"/>

<!-- Link from &quot;id pause&quot; (CONTIENT_SENTIMENT) to &quot;id pause&quot; (PAUSE) -->
<path d="M383 267.5 C419.5 238 407.33 208.5 456 208.5" fill="none" stroke="#e08214" stroke-width="2"/>
<polygon points="456 208.5 444 214.5 448 208.5 444 202.5" fill="#e08214" stroke-width="0"/>
<circle cx="383" cy="267.5" r="2" stroke="#e08214" stroke-width="2" fill="#e08214"/>

<!-- Link from &quot;id utilisateur&quot; (PAUSE) to &quot;id utilisateur&quot; (UTILISATEUR) -->
<path d="M582 310.5 C640 179 645 47.5 587 47.5" fill="none" stroke="#e08214" stroke-width="2"/>
<polygon points="587 47.5 599 41.5 595 47.5 599 53.5" fill="#e08214" stroke-width="0"/>
<circle cx="582" cy="310.5" r="2" stroke="#e08214" stroke-width="2" fill="#e08214"/>

<!-- Link from &quot;id pause&quot; (CONTIENT_BESOIN) to &quot;id pause&quot; (PAUSE) -->
<path d="M655 250.5 C618.5 229.5 630.67 208.5 582 208.5" fill="none" stroke="#e08214" stroke-width="2"/>
<polygon points="582 208.5 594 202.5 590 208.5 594 214.5" fill="#e08214" stroke-width="0"/>
<circle cx="655" cy="250.5" r="2" stroke="#e08214" stroke-width="2" fill="#e08214"/>

<!-- Link from &quot;id besoin&quot; (CONTIENT_BESOIN) to &quot;id besoin&quot; (BESOIN) -->
<path d="M797 267.5 C831 255 819.67 242.5 865 242.5" fill="none" stroke="#e08214" stroke-width="2"/>
<polygon points="865 242.5 853 248.5 857 242.5 853 236.5" fill="#e08214" stroke-width="0"/>
<circle cx="797" cy="267.5" r="2" stroke="#e08214" stroke-width="2" fill="#e08214"/>
</svg>
